<svg width="9" height="18" viewBox="0 0 9 18" fill="none" xmlns="http://www.w3.org/2000/svg">
<path d="M3.44102 17.232L3.67502 13.614L4.66502 13.722L4.44902 17.232H3.44102ZM5.54702 3.498L4.53902 3.354L4.77302 0.618H5.76302L5.54702 3.498ZM4.61102 15.198C4.17902 15.198 3.69902 15.168 3.17102 15.108C2.64302 15.06 2.13302 15 1.64102 14.928C1.16102 14.856 0.747023 14.784 0.399023 14.712L0.543023 12.822C0.903024 12.87 1.31702 12.918 1.78502 12.966C2.26502 13.014 2.73902 13.056 3.20702 13.092C3.68702 13.128 4.09502 13.146 4.43102 13.146C4.86302 13.146 5.21702 13.092 5.49302 12.984C5.78102 12.864 5.99102 12.69 6.12302 12.462C6.25502 12.222 6.32102 11.916 6.32102 11.544C6.32102 11.244 6.25502 11.01 6.12302 10.842C6.00302 10.662 5.78702 10.518 5.47502 10.41C5.17502 10.302 4.74902 10.194 4.19702 10.086C3.26102 9.906 2.50502 9.69 1.92902 9.438C1.36502 9.186 0.951024 8.832 0.687023 8.376C0.435023 7.908 0.309023 7.284 0.309023 6.504C0.309023 5.604 0.477023 4.896 0.813024 4.38C1.14902 3.852 1.62302 3.48 2.23502 3.264C2.85902 3.048 3.59702 2.94 4.44902 2.94C4.83302 2.94 5.27102 2.964 5.76302 3.012C6.25502 3.048 6.74102 3.096 7.22102 3.156C7.70102 3.216 8.11502 3.276 8.46302 3.336L8.33702 5.262C7.98902 5.226 7.58702 5.184 7.13102 5.136C6.67502 5.088 6.22502 5.052 5.78102 5.028C5.33702 4.992 4.95902 4.974 4.64702 4.974C4.21502 4.974 3.85502 5.022 3.56702 5.118C3.29102 5.214 3.08102 5.358 2.93702 5.55C2.80502 5.742 2.73902 5.982 2.73902 6.27C2.73902 6.618 2.80502 6.888 2.93702 7.08C3.08102 7.26 3.31502 7.41 3.63902 7.53C3.96302 7.638 4.41302 7.752 4.98902 7.872C5.67302 8.028 6.25502 8.196 6.73502 8.376C7.21502 8.544 7.60502 8.748 7.90502 8.988C8.20502 9.228 8.42102 9.54 8.55302 9.924C8.69702 10.308 8.76902 10.794 8.76902 11.382C8.76902 12.306 8.60102 13.05 8.26502 13.614C7.94102 14.166 7.46702 14.568 6.84302 14.82C6.23102 15.072 5.48702 15.198 4.61102 15.198Z" fill="white"/>
</svg>
