<svg width="16" height="16" viewBox="0 0 16 16" fill="none" xmlns="http://www.w3.org/2000/svg">
<path d="M3 0C1.89688 0 1 0.896875 1 2V14C1 15.1031 1.89688 16 3 16H12C13.1031 16 14 15.1031 14 14V2C14 0.896875 13.1031 0 12 0H3ZM6.5 9H8.5C9.88125 9 11 10.1187 11 11.5C11 11.775 10.775 12 10.5 12H4.5C4.225 12 4 11.775 4 11.5C4 10.1187 5.11875 9 6.5 9ZM5.5 6C5.5 5.46957 5.71071 4.96086 6.08579 4.58579C6.46086 4.21071 6.96957 4 7.5 4C8.03043 4 8.53914 4.21071 8.91421 4.58579C9.28929 4.96086 9.5 5.46957 9.5 6C9.5 6.53043 9.28929 7.03914 8.91421 7.41421C8.53914 7.78929 8.03043 8 7.5 8C6.96957 8 6.46086 7.78929 6.08579 7.41421C5.71071 7.03914 5.5 6.53043 5.5 6ZM16 2.5C16 2.225 15.775 2 15.5 2C15.225 2 15 2.225 15 2.5V4.5C15 4.775 15.225 5 15.5 5C15.775 5 16 4.775 16 4.5V2.5ZM15.5 6C15.225 6 15 6.225 15 6.5V8.5C15 8.775 15.225 9 15.5 9C15.775 9 16 8.775 16 8.5V6.5C16 6.225 15.775 6 15.5 6ZM16 10.5C16 10.225 15.775 10 15.5 10C15.225 10 15 10.225 15 10.5V12.5C15 12.775 15.225 13 15.5 13C15.775 13 16 12.775 16 12.5V10.5Z" fill="#A80000"/>
</svg>
