<svg width="25" height="25" viewBox="0 0 25 25" fill="none" xmlns="http://www.w3.org/2000/svg">
<path d="M9.33184 17.2544H8.13184V15.2544H10.1318L10.3318 16.0044C10.4818 16.6544 9.98184 17.2544 9.33184 17.2544ZM19.1318 18.7544C19.1318 18.7544 13.2318 15.2544 10.1318 15.2544V8.25439C13.0318 8.25439 19.1318 4.75439 19.1318 4.75439V18.7544Z" fill="white"/>
<path d="M2.63184 11.7544C2.63184 12.0827 2.6965 12.4078 2.82214 12.7111C2.94777 13.0144 3.13192 13.29 3.36407 13.5222C3.59622 13.7543 3.87181 13.9385 4.17513 14.0641C4.47844 14.1897 4.80353 14.2544 5.13184 14.2544C5.46014 14.2544 5.78523 14.1897 6.08854 14.0641C6.39186 13.9385 6.66746 13.7543 6.8996 13.5222C7.13175 13.29 7.3159 13.0144 7.44153 12.7111C7.56717 12.4078 7.63184 12.0827 7.63184 11.7544C7.63184 11.4261 7.56717 11.101 7.44153 10.7977C7.3159 10.4944 7.13175 10.2188 6.8996 9.98664C6.66746 9.75449 6.39186 9.57034 6.08854 9.44471C5.78523 9.31907 5.46014 9.25439 5.13184 9.25439C4.80353 9.25439 4.47844 9.31907 4.17513 9.44471C3.87181 9.57034 3.59622 9.75449 3.36407 9.98664C3.13192 10.2188 2.94777 10.4944 2.82214 10.7977C2.6965 11.101 2.63184 11.4261 2.63184 11.7544Z" fill="white"/>
<path d="M20.6314 10.2544H19.1314V13.2544H20.6314C21.4814 13.2544 22.1314 12.6044 22.1314 11.7544C22.1314 10.9044 21.4814 10.2544 20.6314 10.2544ZM9.93144 21.3544C9.48144 21.6544 8.68144 21.9544 7.63144 22.0544C7.33144 22.1044 7.03144 21.9044 6.93144 21.5544L4.73145 14.7044C4.73145 14.7044 9.13144 11.6044 9.13144 15.2544C9.13144 18.0044 9.88144 19.4544 10.2314 20.0044C10.4814 20.3544 10.4814 20.8044 10.2314 21.1544C10.1314 21.2544 10.0314 21.3044 9.93144 21.3544Z" fill="white"/>
<path d="M5.13184 15.2544H10.1318V8.25439H5.13184C4.58184 8.25439 4.13184 8.70439 4.13184 9.25439V14.2544C4.13184 14.8044 4.58184 15.2544 5.13184 15.2544Z" fill="white"/>
<path d="M19.6318 19.7544C19.0818 19.7544 18.6318 19.3044 18.6318 18.7544V4.75439C18.6318 4.20439 19.0818 3.75439 19.6318 3.75439C20.1818 3.75439 20.6318 4.20439 20.6318 4.75439V18.7544C20.6318 19.3044 20.1818 19.7544 19.6318 19.7544Z" fill="white"/>
</svg>
