<svg width="24" height="24" viewBox="0 0 24 24" fill="none" xmlns="http://www.w3.org/2000/svg">
<path d="M21.0768 16.6345C20.5812 17.7337 20.3424 18.2245 19.704 19.1965C18.8136 20.5525 17.556 22.2421 15.9996 22.2565C14.6172 22.2685 14.262 21.3565 12.384 21.3673C10.5072 21.3769 10.116 22.2733 8.73238 22.2601C7.17598 22.2457 5.98438 20.7205 5.09278 19.3633C2.60038 15.5713 2.33998 11.1193 3.87718 8.75174C4.96918 7.07054 6.69358 6.08654 8.31358 6.08654C9.96358 6.08654 11.0016 6.99134 12.3648 6.99134C13.6884 6.99134 14.4948 6.08414 16.4028 6.08414C17.8428 6.08414 19.3716 6.87014 20.46 8.22614C16.8936 10.1809 17.472 15.2737 21.0768 16.6345ZM14.9556 4.56974C15.648 3.67934 16.1748 2.42414 15.984 1.14014C14.8512 1.21814 13.5276 1.93814 12.7536 2.87774C12.0528 3.72974 11.4732 4.99334 11.6976 6.22214C12.9336 6.25934 14.2128 5.52134 14.9556 4.56974Z" fill="white"/>
</svg>
