<svg width="24" height="24" viewBox="0 0 24 24" fill="none" xmlns="http://www.w3.org/2000/svg">
<path d="M11.5498 2.45605C11.3904 2.49355 11.1701 2.56855 11.0576 2.62949C10.6732 2.82168 1.71071 8.54043 1.55602 8.68574C1.03571 9.18262 1.49508 10.0404 2.22165 9.92324C2.30602 9.90918 2.68571 9.69824 3.06071 9.4498L3.74977 9.00449V14.0998C3.74977 18.2857 3.76383 19.2514 3.8154 19.5045C4.03102 20.5217 4.84196 21.3186 5.88258 21.5389C6.37008 21.642 17.6248 21.642 18.117 21.5389C19.0732 21.3373 19.8326 20.6389 20.1607 19.6639C20.2123 19.5139 20.231 18.4404 20.2498 14.2451L20.2732 9.01387L20.9435 9.4498C21.642 9.8998 21.8013 9.95605 22.0873 9.86699C22.317 9.79668 22.4435 9.69355 22.5466 9.4873C22.6638 9.2623 22.6638 9.07949 22.5466 8.84043C22.4623 8.6623 22.1482 8.45137 18.3654 6.01387C16.1154 4.56543 14.0107 3.21543 13.6873 3.00918C13.3638 2.80293 12.9654 2.5873 12.806 2.53574C12.4216 2.40449 11.9154 2.37637 11.5498 2.45605ZM13.1529 9.12168C13.4013 9.30449 13.4763 9.45449 13.4763 9.7498C13.4763 10.0451 13.4013 10.1951 13.1529 10.3779C13.0357 10.467 12.9466 10.4764 12.1029 10.4904C11.0576 10.5092 10.9029 10.4811 10.692 10.242C10.4482 9.96543 10.4388 9.55293 10.6732 9.27637C10.8935 9.01855 10.9873 8.9998 12.056 9.01387C12.9513 9.02324 13.0357 9.03262 13.1529 9.12168Z" fill="white"/>
</svg>
