<svg width="16" height="14" viewBox="0 0 16 14" fill="none" xmlns="http://www.w3.org/2000/svg">
<g clip-path="url(#clip0_971_1224)">
<path d="M12 1.79961C12 1.13711 11.4625 0.599609 10.8 0.599609H8.4C7.7375 0.599609 7.2 1.13711 7.2 1.79961V2.99961H5.6V1.19961C5.6 0.867109 5.3325 0.599609 5 0.599609C4.6675 0.599609 4.4 0.867109 4.4 1.19961V2.99961H2.8V1.19961C2.8 0.867109 2.5325 0.599609 2.2 0.599609C1.8675 0.599609 1.6 0.867109 1.6 1.19961V2.99961H1.2C0.5375 2.99961 0 3.53711 0 4.19961V6.59961V12.1996C0 12.8621 0.5375 13.3996 1.2 13.3996H7.6H8.4H10.8H14.8C15.4625 13.3996 16 12.8621 16 12.1996V6.59961C16 5.93711 15.4625 5.39961 14.8 5.39961H12V1.79961ZM14.4 9.79961V10.5996C14.4 10.8196 14.22 10.9996 14 10.9996H13.2C12.98 10.9996 12.8 10.8196 12.8 10.5996V9.79961C12.8 9.57961 12.98 9.39961 13.2 9.39961H14C14.22 9.39961 14.4 9.57961 14.4 9.79961ZM6 10.9996H5.2C4.98 10.9996 4.8 10.8196 4.8 10.5996V9.79961C4.8 9.57961 4.98 9.39961 5.2 9.39961H6C6.22 9.39961 6.4 9.57961 6.4 9.79961V10.5996C6.4 10.8196 6.22 10.9996 6 10.9996ZM3.2 10.5996C3.2 10.8196 3.02 10.9996 2.8 10.9996H2C1.78 10.9996 1.6 10.8196 1.6 10.5996V9.79961C1.6 9.57961 1.78 9.39961 2 9.39961H2.8C3.02 9.39961 3.2 9.57961 3.2 9.79961V10.5996ZM14 6.99961C14.22 6.99961 14.4 7.17961 14.4 7.39961V8.19961C14.4 8.41961 14.22 8.59961 14 8.59961H13.2C12.98 8.59961 12.8 8.41961 12.8 8.19961V7.39961C12.8 7.17961 12.98 6.99961 13.2 6.99961H14ZM6.4 4.99961V5.79961C6.4 6.01961 6.22 6.19961 6 6.19961H5.2C4.98 6.19961 4.8 6.01961 4.8 5.79961V4.99961C4.8 4.77961 4.98 4.59961 5.2 4.59961H6C6.22 4.59961 6.4 4.77961 6.4 4.99961ZM2.8 4.59961C3.02 4.59961 3.2 4.77961 3.2 4.99961V5.79961C3.2 6.01961 3.02 6.19961 2.8 6.19961H2C1.78 6.19961 1.6 6.01961 1.6 5.79961V4.99961C1.6 4.77961 1.78 4.59961 2 4.59961H2.8ZM6.4 8.19961C6.4 8.41961 6.22 8.59961 6 8.59961H5.2C4.98 8.59961 4.8 8.41961 4.8 8.19961V7.39961C4.8 7.17961 4.98 6.99961 5.2 6.99961H6C6.22 6.99961 6.4 7.17961 6.4 7.39961V8.19961ZM2.8 8.59961H2C1.78 8.59961 1.6 8.41961 1.6 8.19961V7.39961C1.6 7.17961 1.78 6.99961 2 6.99961H2.8C3.02 6.99961 3.2 7.17961 3.2 7.39961V8.19961C3.2 8.41961 3.02 8.59961 2.8 8.59961ZM10.4 7.39961V8.19961C10.4 8.41961 10.22 8.59961 10 8.59961H9.2C8.98 8.59961 8.8 8.41961 8.8 8.19961V7.39961C8.8 7.17961 8.98 6.99961 9.2 6.99961H10C10.22 6.99961 10.4 7.17961 10.4 7.39961ZM10 2.19961C10.22 2.19961 10.4 2.37961 10.4 2.59961V3.39961C10.4 3.61961 10.22 3.79961 10 3.79961H9.2C8.98 3.79961 8.8 3.61961 8.8 3.39961V2.59961C8.8 2.37961 8.98 2.19961 9.2 2.19961H10ZM10.4 4.99961V5.79961C10.4 6.01961 10.22 6.19961 10 6.19961H9.2C8.98 6.19961 8.8 6.01961 8.8 5.79961V4.99961C8.8 4.77961 8.98 4.59961 9.2 4.59961H10C10.22 4.59961 10.4 4.77961 10.4 4.99961Z" fill="#A80000"/>
</g>
<defs>
<clipPath id="clip0_971_1224">
<rect width="16" height="12.8" fill="white" transform="translate(0 0.599609)"/>
</clipPath>
</defs>
</svg>
