<svg width="24" height="24" viewBox="0 0 24 24" fill="none" xmlns="http://www.w3.org/2000/svg">
<g clip-path="url(#clip0_1354_142)">
<path d="M5.39062 5.25918C5.39062 10.3686 5.39531 10.4529 5.59688 11.2311C6.04688 12.9748 7.32188 14.5592 8.95781 15.417C9.90938 15.9139 10.8609 16.1436 12 16.1436C13.1391 16.1436 14.0906 15.9139 15.0422 15.417C16.6781 14.5592 17.9531 12.9748 18.4031 11.2311C18.6047 10.4529 18.6094 10.3686 18.6094 5.25918V0.374806H12H5.39062V5.25918ZM12.2813 4.21856C12.4359 4.29824 12.5531 4.49043 12.9375 5.26387C13.2516 5.89668 13.3641 6.08418 13.4766 6.14512C13.5609 6.19199 13.9734 6.27637 14.4844 6.35137C14.9625 6.42168 15.4125 6.51074 15.4828 6.54824C15.7547 6.68418 15.8766 7.07324 15.7313 7.34981C15.6938 7.42012 15.3891 7.74824 15.0516 8.07637C14.7141 8.40449 14.4 8.74668 14.3578 8.83574C14.2828 8.99043 14.2875 9.03731 14.4281 9.87637C14.5125 10.3639 14.5781 10.8092 14.5781 10.8748C14.5734 11.1561 14.2688 11.4373 13.9734 11.4373C13.8844 11.4373 13.5094 11.2732 12.9984 11.0107C12.3984 10.6967 12.1266 10.5795 12 10.5795C11.8734 10.5795 11.6016 10.6967 11.0016 11.0107C10.4906 11.2732 10.1156 11.4373 10.0266 11.4373C9.73125 11.4373 9.42656 11.1561 9.42188 10.8748C9.42188 10.8092 9.4875 10.3639 9.57188 9.87637C9.7125 9.03731 9.71719 8.99043 9.64219 8.83574C9.6 8.74668 9.28594 8.40449 8.94844 8.07637C8.61094 7.74824 8.30625 7.42012 8.26875 7.34981C8.12344 7.07324 8.24531 6.68418 8.51719 6.54824C8.5875 6.51074 9.0375 6.42168 9.51563 6.35137C10.0266 6.27637 10.4391 6.19199 10.5234 6.14512C10.6359 6.08418 10.7484 5.89668 11.0625 5.26387C11.2828 4.81856 11.5125 4.40137 11.5734 4.33574C11.7563 4.14824 12.0422 4.10137 12.2813 4.21856Z" fill="#A80000"/>
<path d="M3.61914 1.57523C2.57383 1.8471 1.63164 2.49398 0.956641 3.39398C0.651953 3.79242 0.305078 4.53773 0.155078 5.08617C0.0472656 5.49867 0.0332031 5.64398 0.0332031 6.28148C0.0332031 6.91429 0.0472656 7.06898 0.155078 7.47679C0.295703 8.00179 0.647266 8.75179 0.937891 9.14085C1.16758 9.44554 1.56602 9.86742 1.84258 10.0971C2.0207 10.2424 4.55664 11.8643 4.57539 11.8455C4.58008 11.8409 4.5332 11.644 4.47695 11.4096C4.3457 10.908 4.26602 10.3596 4.26602 10.008C4.26602 9.8721 4.25195 9.72679 4.23789 9.6846C4.22383 9.64242 3.9332 9.43617 3.5957 9.22523C2.57852 8.59242 2.0957 8.02054 1.83789 7.14867C1.70195 6.67992 1.6832 5.99085 1.80039 5.53148C2.02539 4.63148 2.66289 3.84398 3.47383 3.45492C3.71758 3.33773 3.98477 3.22992 4.06914 3.21117L4.21914 3.17835V2.31585C4.21914 1.31742 4.28477 1.3971 3.61914 1.57523Z" fill="#A80000"/>
<path d="M19.7814 2.31585V3.17835L19.9361 3.21117C20.0158 3.22992 20.2829 3.33773 20.5267 3.45492C21.3376 3.84398 21.9751 4.63148 22.2001 5.53148C22.3173 5.99085 22.2986 6.67992 22.1626 7.14867C21.9048 8.02054 21.422 8.59242 20.4048 9.22523C20.0673 9.43617 19.7767 9.64242 19.7626 9.6846C19.7486 9.72679 19.7345 9.8721 19.7345 10.008C19.7345 10.3596 19.6548 10.908 19.5236 11.4096C19.4673 11.644 19.4204 11.8409 19.4251 11.8455C19.4439 11.8643 21.9798 10.2424 22.172 10.0877C22.9642 9.44085 23.5829 8.47523 23.8454 7.47679C23.9533 7.06898 23.9673 6.91429 23.9673 6.28148C23.9673 5.64398 23.9533 5.49867 23.8454 5.08617C23.3814 3.3471 22.0454 2.00179 20.3486 1.56585C20.1095 1.50492 19.8798 1.45335 19.847 1.45335C19.7954 1.45335 19.7814 1.61742 19.7814 2.31585Z" fill="#A80000"/>
<path d="M10.7344 18.4922V19.6875H10.1953C9.01875 19.6875 8.17031 20.0297 7.4625 20.7891C6.86719 21.4266 6.58125 22.1531 6.55313 23.0953L6.53906 23.6016H12H17.4609L17.4469 23.0953C17.4188 22.1531 17.1328 21.4266 16.5375 20.7891C15.8297 20.0297 14.9813 19.6875 13.8047 19.6875H13.2656V18.4922V17.2969H12H10.7344V18.4922Z" fill="#A80000"/>
</g>
<defs>
<clipPath id="clip0_1354_142">
<rect width="24" height="24" fill="white"/>
</clipPath>
</defs>
</svg>
