<svg width="24" height="24" viewBox="0 0 24 24" fill="none" xmlns="http://www.w3.org/2000/svg">
<path d="M11.3484 2.79385C10.2328 3.09385 9.41717 4.15791 9.42186 5.31572C9.42186 5.84072 9.68904 6.53447 10.05 6.96104L10.2094 7.14854L9.83436 7.89854C9.62811 8.31104 9.11248 9.32822 8.68592 10.1626L7.91248 11.6767L7.04998 10.5235C6.57654 9.89541 6.18748 9.36104 6.18748 9.3376C6.18748 9.31885 6.26248 9.16416 6.35154 8.99541C6.87186 8.01104 6.70779 6.88135 5.92029 6.04229C5.14217 5.21729 3.92811 5.01572 2.89217 5.53604C2.71404 5.62979 2.47498 5.8126 2.26873 6.01885C1.26561 7.02197 1.24686 8.59697 2.22654 9.59072C2.54998 9.91885 2.84998 10.1063 3.28123 10.2517C3.44998 10.3079 3.59998 10.3829 3.61873 10.4157C3.63748 10.4485 3.84373 12.0985 4.07811 14.0767C4.31248 16.0595 4.52811 17.7376 4.55154 17.8032C4.61248 17.9626 4.76717 18.1313 4.93123 18.2157C5.11873 18.3142 18.8812 18.3142 19.0687 18.2157C19.2328 18.1313 19.3875 17.9626 19.4484 17.8032C19.4719 17.7376 19.6875 16.0595 19.9219 14.0767C20.1562 12.0985 20.3625 10.4485 20.3812 10.4157C20.4 10.3829 20.55 10.3079 20.7187 10.2517C21.5906 9.95635 22.2187 9.27197 22.4297 8.38604C22.6922 7.25635 22.1203 6.04229 21.075 5.53135C20.039 5.02041 18.9234 5.20322 18.1125 6.01885C17.2969 6.83447 17.1187 7.99229 17.6484 8.99541C17.7375 9.16416 17.8125 9.31885 17.8125 9.3376C17.8125 9.36104 17.4234 9.89541 16.95 10.5235L16.0875 11.6767L15.314 10.1626C14.8875 9.32822 14.3719 8.31104 14.1656 7.89854L13.7906 7.14854L13.95 6.96104C14.1797 6.68916 14.4234 6.20166 14.5078 5.85479C14.639 5.2876 14.5781 4.74385 14.3156 4.17666C14.1187 3.7501 13.5703 3.18291 13.1625 2.98604C12.6094 2.71885 11.9015 2.64385 11.3484 2.79385Z" fill="#A80000"/>
<path d="M4.94106 19.8703C4.68325 19.9875 4.53325 20.2031 4.50981 20.5031C4.49106 20.7797 4.60356 20.9953 4.87075 21.1734L5.03013 21.2812H12.0004H18.9708L19.1301 21.1734C19.3973 20.9953 19.5098 20.7797 19.4911 20.5031C19.4676 20.2031 19.3176 19.9875 19.0598 19.8703C18.877 19.7859 18.5958 19.7812 12.0004 19.7812C5.40513 19.7812 5.12388 19.7859 4.94106 19.8703Z" fill="#A80000"/>
</svg>
