<svg width="20" height="18" viewBox="0 0 20 18" fill="none" xmlns="http://www.w3.org/2000/svg">
<g clip-path="url(#clip0_966_952)">
<path d="M9.99913 1.11108C7.19358 1.11108 4.94705 2.38886 3.31163 3.9097C1.68663 5.41664 0.599826 7.2222 0.0859375 8.46178C-0.0286458 8.73608 -0.0286458 9.04164 0.0859375 9.31595C0.599826 10.5555 1.68663 12.3611 3.31163 13.868C4.94705 15.3889 7.19358 16.6666 9.99913 16.6666C12.8047 16.6666 15.0512 15.3889 16.6866 13.868C18.3116 12.3576 19.3984 10.5555 19.9158 9.31595C20.0304 9.04164 20.0304 8.73608 19.9158 8.46178C19.3984 7.2222 18.3116 5.41664 16.6866 3.9097C15.0512 2.38886 12.8047 1.11108 9.99913 1.11108ZM4.99913 8.88886C4.99913 7.56278 5.52592 6.29101 6.4636 5.35333C7.40128 4.41565 8.67305 3.88886 9.99913 3.88886C11.3252 3.88886 12.597 4.41565 13.5347 5.35333C14.4723 6.29101 14.9991 7.56278 14.9991 8.88886C14.9991 10.2149 14.4723 11.4867 13.5347 12.4244C12.597 13.3621 11.3252 13.8889 9.99913 13.8889C8.67305 13.8889 7.40128 13.3621 6.4636 12.4244C5.52592 11.4867 4.99913 10.2149 4.99913 8.88886ZM9.99913 6.66664C9.99913 7.89233 9.0026 8.88886 7.77691 8.88886C7.53038 8.88886 7.29427 8.8472 7.07205 8.77428C6.88108 8.71178 6.65885 8.82984 6.6658 9.03122C6.67622 9.27081 6.71094 9.51039 6.77691 9.74997C7.2526 11.5278 9.08247 12.5833 10.8602 12.1076C12.638 11.6319 13.6936 9.80206 13.2179 8.02428C12.8325 6.58331 11.5582 5.61456 10.1415 5.55553C9.94011 5.54858 9.82205 5.76733 9.88455 5.96178C9.95747 6.184 9.99913 6.42011 9.99913 6.66664Z" fill="white"/>
</g>
<defs>
<clipPath id="clip0_966_952">
<rect width="20" height="17.7778" fill="white"/>
</clipPath>
</defs>
</svg>
