<svg width="24" height="24" viewBox="0 0 24 24" fill="none" xmlns="http://www.w3.org/2000/svg">
<path d="M12.9092 0.117189C12.778 0.182814 12.6233 0.304689 12.5623 0.384376C12.028 1.10625 3.29514 13.7063 3.22951 13.8516C2.97639 14.4047 3.32795 15.0984 3.93264 15.2297C4.0967 15.2625 5.17483 15.2813 7.24201 15.2813H10.3123V15.3984C10.3123 15.4641 10.153 17.2078 9.96076 19.2797C9.62795 22.8563 9.61389 23.0578 9.67951 23.2828C9.80139 23.7 10.228 24 10.6873 24C10.8889 24 11.1889 23.8641 11.3436 23.7047C11.5264 23.5219 20.7139 10.2844 20.7983 10.0875C20.967 9.67969 20.7608 9.1125 20.353 8.87344L20.1326 8.74219L16.8889 8.72813L13.6498 8.71406L13.6733 8.54063C13.6826 8.44688 13.8467 6.70781 14.0342 4.67813C14.3014 1.83281 14.367 0.937501 14.3342 0.778126C14.3108 0.656251 14.2217 0.492189 14.1186 0.375001C13.7998 -0.00468607 13.3451 -0.0984361 12.9092 0.117189Z" fill="#A80000"/>
</svg>
