<svg width="18" height="18" viewBox="0 0 18 18" fill="none" xmlns="http://www.w3.org/2000/svg">
<path d="M11.5954 2.36803C11.5122 2.30335 11.4126 2.26332 11.3078 2.25249C11.203 2.24166 11.0973 2.26048 11.0027 2.30679C10.9081 2.3531 10.8284 2.42504 10.7727 2.51443C10.7169 2.60382 10.6874 2.70706 10.6875 2.8124V5.05453L10.5356 5.0624C9.94117 5.10291 9.3559 5.23065 8.79863 5.44153C7.86102 5.79641 7.04362 6.41053 6.44175 7.21228C5.74087 8.14153 5.22562 9.43078 5.06475 11.1993C5.0541 11.3145 5.07926 11.4303 5.13681 11.5307C5.19435 11.6311 5.28148 11.7114 5.3863 11.7605C5.49113 11.8095 5.60854 11.8251 5.72253 11.805C5.83652 11.7849 5.94154 11.7301 6.02325 11.6482C7.35975 10.3094 8.68837 9.65015 9.6705 9.32278C10.0755 9.18778 10.422 9.10903 10.6875 9.06403V11.2499C10.6875 11.3583 10.7188 11.4645 10.7777 11.5555C10.8365 11.6466 10.9205 11.7186 11.0194 11.7631C11.1183 11.8076 11.2279 11.8225 11.3351 11.8061C11.4423 11.7897 11.5424 11.7426 11.6235 11.6707L16.686 7.17065C16.7478 7.11583 16.7968 7.04806 16.8295 6.97215C16.8622 6.89625 16.8777 6.81408 16.875 6.73149C16.8723 6.64889 16.8515 6.56791 16.814 6.49429C16.7764 6.42067 16.7231 6.35622 16.6579 6.30553L11.5954 2.36803ZM11.1859 6.18403H11.1893C11.2678 6.19256 11.3472 6.18446 11.4224 6.16025C11.4976 6.13604 11.5668 6.09627 11.6256 6.04352C11.6844 5.99078 11.7314 5.92624 11.7636 5.85411C11.7958 5.78199 11.8125 5.70389 11.8125 5.6249V3.96215L15.4339 6.77915L11.8125 9.99665V8.4374C11.8125 8.28822 11.7532 8.14514 11.6477 8.03965C11.5423 7.93417 11.3992 7.8749 11.25 7.8749H11.1994L11.0869 7.88165C10.9533 7.89114 10.8201 7.9054 10.6875 7.9244C10.35 7.97278 9.8775 8.06728 9.315 8.25515C8.28257 8.60568 7.31432 9.12248 6.4485 9.78515C6.66675 8.97965 6.984 8.36315 7.34063 7.88953C7.81543 7.25635 8.46091 6.77166 9.20137 6.49228C9.79102 6.27038 10.4176 6.16308 11.0475 6.17615C11.0985 6.17765 11.136 6.17953 11.16 6.18178L11.1859 6.18403ZM5.0625 3.3749C4.31658 3.3749 3.60121 3.67122 3.07376 4.19866C2.54632 4.72611 2.25 5.44148 2.25 6.1874V12.9374C2.25 13.6833 2.54632 14.3987 3.07376 14.9261C3.60121 15.4536 4.31658 15.7499 5.0625 15.7499H11.8125C12.5584 15.7499 13.2738 15.4536 13.8012 14.9261C14.3287 14.3987 14.625 13.6833 14.625 12.9374V11.8124C14.625 11.6632 14.5657 11.5201 14.4602 11.4147C14.3548 11.3092 14.2117 11.2499 14.0625 11.2499C13.9133 11.2499 13.7702 11.3092 13.6648 11.4147C13.5593 11.5201 13.5 11.6632 13.5 11.8124V12.9374C13.5 13.385 13.3222 13.8142 13.0057 14.1306C12.6893 14.4471 12.2601 14.6249 11.8125 14.6249H5.0625C4.61495 14.6249 4.18572 14.4471 3.86926 14.1306C3.55279 13.8142 3.375 13.385 3.375 12.9374V6.1874C3.375 5.73985 3.55279 5.31063 3.86926 4.99416C4.18572 4.67769 4.61495 4.4999 5.0625 4.4999H7.3125C7.46168 4.4999 7.60476 4.44064 7.71025 4.33515C7.81574 4.22966 7.875 4.08659 7.875 3.9374C7.875 3.78822 7.81574 3.64514 7.71025 3.53965C7.60476 3.43417 7.46168 3.3749 7.3125 3.3749H5.0625Z" fill="white"/>
</svg>
