<svg width="24" height="26" viewBox="0 0 24 26" fill="none" xmlns="http://www.w3.org/2000/svg">
<g clip-path="url(#clip0_100_283)">
<path d="M17.7013 16.9258C20.7443 15.2549 23.0513 13.9817 23.2502 13.8828C23.8863 13.5444 24.5432 12.6491 23.2502 11.9537C22.8327 11.735 20.5851 10.5014 17.7013 8.91064L13.7036 12.9479L17.7013 16.9258Z" fill="#FFD900"/>
<path d="M13.7035 12.9478L0.974365 25.7768C1.27313 25.8163 1.61047 25.7372 2.00817 25.5186C2.84312 25.0615 11.6942 20.2279 17.7012 16.9266L13.7035 12.9478Z" fill="#F43249"/>
<path d="M13.7035 12.9478L17.7012 8.93036C17.7012 8.93036 2.90348 0.854849 2.00818 0.378015C1.67083 0.17818 1.29292 0.118823 0.95459 0.17818L13.7035 12.9478Z" fill="#00EE76"/>
<path d="M13.7035 12.9479L0.954658 0.178223C0.437263 0.297926 0 0.754975 0 1.68985V24.2653C0 25.121 0.338335 25.7373 0.974443 25.7967L13.7035 12.9479Z" fill="#00D3FF"/>
</g>
<defs>
<clipPath id="clip0_100_283">
<rect width="24" height="25.6875" fill="white" transform="translate(0 0.15625)"/>
</clipPath>
</defs>
</svg>
