<svg width="20" height="18" viewBox="0 0 20 18" fill="none" xmlns="http://www.w3.org/2000/svg">
<g clip-path="url(#clip0_966_944)">
<path d="M19.9935 8.87153C19.9935 9.49653 19.4727 9.98611 18.8824 9.98611H17.7713L17.7956 15.5486C17.7956 15.6424 17.7886 15.7361 17.7782 15.8299V16.3924C17.7782 17.1597 17.1567 17.7813 16.3893 17.7813H15.8338C15.7956 17.7813 15.7574 17.7813 15.7192 17.7778C15.6706 17.7813 15.622 17.7813 15.5734 17.7813L14.4449 17.7778H13.6115C12.8442 17.7778 12.2227 17.1563 12.2227 16.3889V15.5556V13.3333C12.2227 12.7188 11.7261 12.2222 11.1115 12.2222H8.88932C8.27474 12.2222 7.77821 12.7188 7.77821 13.3333V15.5556V16.3889C7.77821 17.1563 7.15668 17.7778 6.38932 17.7778H5.55599H4.44835C4.39627 17.7778 4.34418 17.7743 4.2921 17.7708C4.25043 17.7743 4.20877 17.7778 4.1671 17.7778H3.61155C2.84418 17.7778 2.22266 17.1563 2.22266 16.3889V12.5C2.22266 12.4688 2.22266 12.434 2.22613 12.4028V9.98264H1.11502C0.490017 9.98264 0.00390625 9.49653 0.00390625 8.86806C0.00390625 8.55556 0.108073 8.27778 0.351128 8.03472L9.25043 0.277778C9.49349 0.0347222 9.77127 0 10.0143 0C10.2574 0 10.5352 0.0694444 10.7435 0.243056L19.6115 8.03819C19.8893 8.28125 20.0282 8.55903 19.9935 8.87153Z" fill="white"/>
</g>
<defs>
<clipPath id="clip0_966_944">
<rect width="20" height="17.7778" fill="white"/>
</clipPath>
</defs>
</svg>
