<svg width="16" height="16" viewBox="0 0 16 16" fill="none" xmlns="http://www.w3.org/2000/svg">
<g clip-path="url(#clip0_1372_101)">
<mask id="mask0_1372_101" style="mask-type:luminance" maskUnits="userSpaceOnUse" x="0" y="0" width="16" height="16">
<path d="M16 0H0V16H16V0Z" fill="white"/>
</mask>
<g mask="url(#mask0_1372_101)">
<path d="M1.33325 7.99992C1.33325 11.6819 4.31792 14.6666 7.99992 14.6666C11.6819 14.6666 14.6666 11.6819 14.6666 7.99992C14.6666 4.31792 11.6819 1.33325 7.99992 1.33325C4.31792 1.33325 1.33325 4.31792 1.33325 7.99992Z" stroke="#101820" stroke-linecap="round" stroke-linejoin="round"/>
<path d="M8.66651 1.3667C8.66651 1.3667 10.6665 4.00003 10.6665 8.00003C10.6665 12 8.66651 14.6334 8.66651 14.6334M7.33317 14.6334C7.33317 14.6334 5.33317 12 5.33317 8.00003C5.33317 4.00003 7.33317 1.3667 7.33317 1.3667M1.75317 10.3334H14.2465M1.75317 5.6667H14.2465" stroke="#101820" stroke-linecap="round" stroke-linejoin="round"/>
</g>
</g>
<defs>
<clipPath id="clip0_1372_101">
<rect width="16" height="16" fill="white"/>
</clipPath>
</defs>
</svg>
