<svg width="111" height="29" viewBox="0 0 111 29" fill="none" xmlns="http://www.w3.org/2000/svg">
<path d="M20.6898 0.0952148L14.3541 12.4558L8.01834 0.0952148H0L1.19617 2.43108H6.54705L14.3541 17.6803L22.1611 2.43108H27.512L28.7081 0.0952148H20.6898ZM14.3541 22.901L5.06778 4.76693H2.39235L14.3541 28.1255L26.3158 4.76693H23.6404L14.3541 22.901Z" fill="white"/>
<path d="M52.136 5.588L43.556 23H40.4L36.092 5.588H38.888C39.192 5.588 39.432 5.664 39.608 5.816C39.784 5.96 39.892 6.14 39.932 6.356L42.032 16.64C42.128 17 42.216 17.392 42.296 17.816C42.376 18.24 42.444 18.688 42.5 19.16C42.82 18.208 43.164 17.368 43.532 16.64L48.08 6.356C48.168 6.172 48.324 6 48.548 5.84C48.78 5.672 49.04 5.588 49.328 5.588H52.136ZM60.9494 15.356C60.9494 15.012 60.9014 14.684 60.8054 14.372C60.7174 14.06 60.5734 13.784 60.3734 13.544C60.1734 13.304 59.9214 13.116 59.6174 12.98C59.3134 12.836 58.9494 12.764 58.5254 12.764C57.7334 12.764 57.1134 12.988 56.6654 13.436C56.2174 13.884 55.9254 14.524 55.7894 15.356H60.9494ZM55.7414 17.324C55.8454 18.484 56.1734 19.332 56.7254 19.868C57.2854 20.404 58.0134 20.672 58.9094 20.672C59.3654 20.672 59.7574 20.62 60.0854 20.516C60.4214 20.404 60.7134 20.284 60.9614 20.156C61.2174 20.02 61.4454 19.9 61.6454 19.796C61.8534 19.684 62.0574 19.628 62.2574 19.628C62.5134 19.628 62.7134 19.724 62.8574 19.916L63.8174 21.116C63.4654 21.524 63.0774 21.864 62.6534 22.136C62.2294 22.4 61.7894 22.612 61.3334 22.772C60.8774 22.924 60.4174 23.028 59.9534 23.084C59.4894 23.148 59.0414 23.18 58.6094 23.18C57.7454 23.18 56.9374 23.04 56.1854 22.76C55.4414 22.472 54.7894 22.052 54.2294 21.5C53.6774 20.94 53.2414 20.248 52.9214 19.424C52.6014 18.6 52.4414 17.644 52.4414 16.556C52.4414 15.716 52.5774 14.924 52.8494 14.18C53.1294 13.436 53.5294 12.788 54.0494 12.236C54.5694 11.684 55.2014 11.248 55.9454 10.928C56.6894 10.6 57.5294 10.436 58.4654 10.436C59.2574 10.436 59.9854 10.564 60.6494 10.82C61.3214 11.068 61.8974 11.432 62.3774 11.912C62.8654 12.392 63.2414 12.984 63.5054 13.688C63.7774 14.384 63.9134 15.18 63.9134 16.076C63.9134 16.324 63.9014 16.528 63.8774 16.688C63.8534 16.848 63.8134 16.976 63.7574 17.072C63.7014 17.168 63.6254 17.236 63.5294 17.276C63.4334 17.308 63.3094 17.324 63.1574 17.324H55.7414ZM78.1531 23H74.9731C74.7331 23 74.5371 22.94 74.3851 22.82C74.2411 22.7 74.1251 22.56 74.0371 22.4L71.6011 18.332C71.5291 18.604 71.4251 18.844 71.2891 19.052L69.2011 22.4C69.1051 22.552 68.9851 22.692 68.8411 22.82C68.7051 22.94 68.5291 23 68.3131 23H65.3611L69.5611 16.616L65.5291 10.628H68.7091C68.9491 10.628 69.1251 10.66 69.2371 10.724C69.3491 10.788 69.4491 10.892 69.5371 11.036L71.9611 14.96C72.0011 14.824 72.0531 14.688 72.1171 14.552C72.1811 14.408 72.2571 14.268 72.3451 14.132L74.2051 11.096C74.3971 10.784 74.6451 10.628 74.9491 10.628H77.9851L73.9531 16.472L78.1531 23ZM85.4921 10.436C86.4201 10.436 87.2641 10.584 88.0241 10.88C88.7841 11.176 89.4361 11.6 89.9801 12.152C90.5241 12.696 90.9441 13.36 91.2401 14.144C91.5361 14.928 91.6841 15.812 91.6841 16.796C91.6841 17.78 91.5361 18.668 91.2401 19.46C90.9441 20.244 90.5241 20.912 89.9801 21.464C89.4361 22.016 88.7841 22.44 88.0241 22.736C87.2641 23.032 86.4201 23.18 85.4921 23.18C84.5561 23.18 83.7041 23.032 82.9361 22.736C82.1761 22.44 81.5241 22.016 80.9801 21.464C80.4361 20.912 80.0121 20.244 79.7081 19.46C79.4121 18.668 79.2641 17.78 79.2641 16.796C79.2641 15.812 79.4121 14.928 79.7081 14.144C80.0121 13.36 80.4361 12.696 80.9801 12.152C81.5241 11.6 82.1761 11.176 82.9361 10.88C83.7041 10.584 84.5561 10.436 85.4921 10.436ZM85.4921 20.696C86.4361 20.696 87.1361 20.372 87.5921 19.724C88.0481 19.068 88.2761 18.096 88.2761 16.808C88.2761 15.528 88.0481 14.564 87.5921 13.916C87.1361 13.26 86.4361 12.932 85.4921 12.932C84.5241 12.932 83.8121 13.26 83.3561 13.916C82.9001 14.564 82.6721 15.528 82.6721 16.808C82.6721 18.096 82.9001 19.068 83.3561 19.724C83.8121 20.372 84.5241 20.696 85.4921 20.696ZM97.8316 12.668C98.2236 11.964 98.6756 11.408 99.1876 11C99.6996 10.592 100.3 10.388 100.988 10.388C101.548 10.388 102.004 10.52 102.356 10.784L102.14 13.232C102.1 13.392 102.036 13.504 101.948 13.568C101.868 13.624 101.756 13.652 101.612 13.652C101.484 13.652 101.3 13.636 101.06 13.604C100.82 13.564 100.596 13.544 100.388 13.544C100.084 13.544 99.8116 13.588 99.5716 13.676C99.3396 13.764 99.1316 13.888 98.9476 14.048C98.7636 14.208 98.5956 14.404 98.4436 14.636C98.2996 14.868 98.1636 15.132 98.0356 15.428V23H94.7236V10.628H96.6796C97.0156 10.628 97.2476 10.688 97.3756 10.808C97.5036 10.928 97.5956 11.136 97.6516 11.432L97.8316 12.668Z" fill="white"/>
</svg>
