<svg width="129" height="39" viewBox="0 0 129 39" fill="none" xmlns="http://www.w3.org/2000/svg">
<path d="M27.3105 0.789474L18.9474 17.5L10.5842 0.789474H0L1.57895 3.94737H8.64211L18.9474 24.5632L29.2526 3.94737H36.3158L37.8947 0.789474H27.3105ZM18.9474 31.6211L6.68947 7.10526H3.1579L18.9474 38.6842L34.7368 7.10526H31.2053L18.9474 31.6211Z" fill="#101820"/>
<path d="M63.136 13.588L54.556 31H51.4L47.092 13.588H49.888C50.192 13.588 50.432 13.664 50.608 13.816C50.784 13.96 50.892 14.14 50.932 14.356L53.032 24.64C53.128 25 53.216 25.392 53.296 25.816C53.376 26.24 53.444 26.688 53.5 27.16C53.82 26.208 54.164 25.368 54.532 24.64L59.08 14.356C59.168 14.172 59.324 14 59.548 13.84C59.78 13.672 60.04 13.588 60.328 13.588H63.136ZM71.9494 23.356C71.9494 23.012 71.9014 22.684 71.8054 22.372C71.7174 22.06 71.5734 21.784 71.3734 21.544C71.1734 21.304 70.9214 21.116 70.6174 20.98C70.3134 20.836 69.9494 20.764 69.5254 20.764C68.7334 20.764 68.1134 20.988 67.6654 21.436C67.2174 21.884 66.9254 22.524 66.7894 23.356H71.9494ZM66.7414 25.324C66.8454 26.484 67.1734 27.332 67.7254 27.868C68.2854 28.404 69.0134 28.672 69.9094 28.672C70.3654 28.672 70.7574 28.62 71.0854 28.516C71.4214 28.404 71.7134 28.284 71.9614 28.156C72.2174 28.02 72.4454 27.9 72.6454 27.796C72.8534 27.684 73.0574 27.628 73.2574 27.628C73.5134 27.628 73.7134 27.724 73.8574 27.916L74.8174 29.116C74.4654 29.524 74.0774 29.864 73.6534 30.136C73.2294 30.4 72.7894 30.612 72.3334 30.772C71.8774 30.924 71.4174 31.028 70.9534 31.084C70.4894 31.148 70.0414 31.18 69.6094 31.18C68.7454 31.18 67.9374 31.04 67.1854 30.76C66.4414 30.472 65.7894 30.052 65.2294 29.5C64.6774 28.94 64.2414 28.248 63.9214 27.424C63.6014 26.6 63.4414 25.644 63.4414 24.556C63.4414 23.716 63.5774 22.924 63.8494 22.18C64.1294 21.436 64.5294 20.788 65.0494 20.236C65.5694 19.684 66.2014 19.248 66.9454 18.928C67.6894 18.6 68.5294 18.436 69.4654 18.436C70.2574 18.436 70.9854 18.564 71.6494 18.82C72.3214 19.068 72.8974 19.432 73.3774 19.912C73.8654 20.392 74.2414 20.984 74.5054 21.688C74.7774 22.384 74.9134 23.18 74.9134 24.076C74.9134 24.324 74.9014 24.528 74.8774 24.688C74.8534 24.848 74.8134 24.976 74.7574 25.072C74.7014 25.168 74.6254 25.236 74.5294 25.276C74.4334 25.308 74.3094 25.324 74.1574 25.324H66.7414ZM89.1531 31H85.9731C85.7331 31 85.5371 30.94 85.3851 30.82C85.2411 30.7 85.1251 30.56 85.0371 30.4L82.6011 26.332C82.5291 26.604 82.4251 26.844 82.2891 27.052L80.2011 30.4C80.1051 30.552 79.9851 30.692 79.8411 30.82C79.7051 30.94 79.5291 31 79.3131 31H76.3611L80.5611 24.616L76.5291 18.628H79.7091C79.9491 18.628 80.1251 18.66 80.2371 18.724C80.3491 18.788 80.4491 18.892 80.5371 19.036L82.9611 22.96C83.0011 22.824 83.0531 22.688 83.1171 22.552C83.1811 22.408 83.2571 22.268 83.3451 22.132L85.2051 19.096C85.3971 18.784 85.6451 18.628 85.9491 18.628H88.9851L84.9531 24.472L89.1531 31ZM96.4921 18.436C97.4201 18.436 98.2641 18.584 99.0241 18.88C99.7841 19.176 100.436 19.6 100.98 20.152C101.524 20.696 101.944 21.36 102.24 22.144C102.536 22.928 102.684 23.812 102.684 24.796C102.684 25.78 102.536 26.668 102.24 27.46C101.944 28.244 101.524 28.912 100.98 29.464C100.436 30.016 99.7841 30.44 99.0241 30.736C98.2641 31.032 97.4201 31.18 96.4921 31.18C95.5561 31.18 94.7041 31.032 93.9361 30.736C93.1761 30.44 92.5241 30.016 91.9801 29.464C91.4361 28.912 91.0121 28.244 90.7081 27.46C90.4121 26.668 90.2641 25.78 90.2641 24.796C90.2641 23.812 90.4121 22.928 90.7081 22.144C91.0121 21.36 91.4361 20.696 91.9801 20.152C92.5241 19.6 93.1761 19.176 93.9361 18.88C94.7041 18.584 95.5561 18.436 96.4921 18.436ZM96.4921 28.696C97.4361 28.696 98.1361 28.372 98.5921 27.724C99.0481 27.068 99.2761 26.096 99.2761 24.808C99.2761 23.528 99.0481 22.564 98.5921 21.916C98.1361 21.26 97.4361 20.932 96.4921 20.932C95.5241 20.932 94.8121 21.26 94.3561 21.916C93.9001 22.564 93.6721 23.528 93.6721 24.808C93.6721 26.096 93.9001 27.068 94.3561 27.724C94.8121 28.372 95.5241 28.696 96.4921 28.696ZM108.832 20.668C109.224 19.964 109.676 19.408 110.188 19C110.7 18.592 111.3 18.388 111.988 18.388C112.548 18.388 113.004 18.52 113.356 18.784L113.14 21.232C113.1 21.392 113.036 21.504 112.948 21.568C112.868 21.624 112.756 21.652 112.612 21.652C112.484 21.652 112.3 21.636 112.06 21.604C111.82 21.564 111.596 21.544 111.388 21.544C111.084 21.544 110.812 21.588 110.572 21.676C110.34 21.764 110.132 21.888 109.948 22.048C109.764 22.208 109.596 22.404 109.444 22.636C109.3 22.868 109.164 23.132 109.036 23.428V31H105.724V18.628H107.68C108.016 18.628 108.248 18.688 108.376 18.808C108.504 18.928 108.596 19.136 108.652 19.432L108.832 20.668Z" fill="#101820"/>
</svg>
