<svg width="120" height="41" viewBox="0 0 120 41" fill="none" xmlns="http://www.w3.org/2000/svg">
<path d="M27.3105 0L18.9474 17.9864L10.5842 0H0L1.57895 3.39901H8.64211L18.9474 25.5889L29.2526 3.39901H36.3158L37.8947 0H27.3105ZM18.9474 33.1856L6.68947 6.79801H3.1579L18.9474 40.7881L34.7368 6.79801H31.2053L18.9474 33.1856Z" fill="white"/>
<path d="M67.136 11.588L58.556 29H55.4L51.092 11.588H53.888C54.192 11.588 54.432 11.664 54.608 11.816C54.784 11.96 54.892 12.14 54.932 12.356L57.032 22.64C57.128 23 57.216 23.392 57.296 23.816C57.376 24.24 57.444 24.688 57.5 25.16C57.82 24.208 58.164 23.368 58.532 22.64L63.08 12.356C63.168 12.172 63.324 12 63.548 11.84C63.78 11.672 64.04 11.588 64.328 11.588H67.136ZM75.9494 21.356C75.9494 21.012 75.9014 20.684 75.8054 20.372C75.7174 20.06 75.5734 19.784 75.3734 19.544C75.1734 19.304 74.9214 19.116 74.6174 18.98C74.3134 18.836 73.9494 18.764 73.5254 18.764C72.7334 18.764 72.1134 18.988 71.6654 19.436C71.2174 19.884 70.9254 20.524 70.7894 21.356H75.9494ZM70.7414 23.324C70.8454 24.484 71.1734 25.332 71.7254 25.868C72.2854 26.404 73.0134 26.672 73.9094 26.672C74.3654 26.672 74.7574 26.62 75.0854 26.516C75.4214 26.404 75.7134 26.284 75.9614 26.156C76.2174 26.02 76.4454 25.9 76.6454 25.796C76.8534 25.684 77.0574 25.628 77.2574 25.628C77.5134 25.628 77.7134 25.724 77.8574 25.916L78.8174 27.116C78.4654 27.524 78.0774 27.864 77.6534 28.136C77.2294 28.4 76.7894 28.612 76.3334 28.772C75.8774 28.924 75.4174 29.028 74.9534 29.084C74.4894 29.148 74.0414 29.18 73.6094 29.18C72.7454 29.18 71.9374 29.04 71.1854 28.76C70.4414 28.472 69.7894 28.052 69.2294 27.5C68.6774 26.94 68.2414 26.248 67.9214 25.424C67.6014 24.6 67.4414 23.644 67.4414 22.556C67.4414 21.716 67.5774 20.924 67.8494 20.18C68.1294 19.436 68.5294 18.788 69.0494 18.236C69.5694 17.684 70.2014 17.248 70.9454 16.928C71.6894 16.6 72.5294 16.436 73.4654 16.436C74.2574 16.436 74.9854 16.564 75.6494 16.82C76.3214 17.068 76.8974 17.432 77.3774 17.912C77.8654 18.392 78.2414 18.984 78.5054 19.688C78.7774 20.384 78.9134 21.18 78.9134 22.076C78.9134 22.324 78.9014 22.528 78.8774 22.688C78.8534 22.848 78.8134 22.976 78.7574 23.072C78.7014 23.168 78.6254 23.236 78.5294 23.276C78.4334 23.308 78.3094 23.324 78.1574 23.324H70.7414ZM93.1531 29H89.9731C89.7331 29 89.5371 28.94 89.3851 28.82C89.2411 28.7 89.1251 28.56 89.0371 28.4L86.6011 24.332C86.5291 24.604 86.4251 24.844 86.2891 25.052L84.2011 28.4C84.1051 28.552 83.9851 28.692 83.8411 28.82C83.7051 28.94 83.5291 29 83.3131 29H80.3611L84.5611 22.616L80.5291 16.628H83.7091C83.9491 16.628 84.1251 16.66 84.2371 16.724C84.3491 16.788 84.4491 16.892 84.5371 17.036L86.9611 20.96C87.0011 20.824 87.0531 20.688 87.1171 20.552C87.1811 20.408 87.2571 20.268 87.3451 20.132L89.2051 17.096C89.3971 16.784 89.6451 16.628 89.9491 16.628H92.9851L88.9531 22.472L93.1531 29ZM100.492 16.436C101.42 16.436 102.264 16.584 103.024 16.88C103.784 17.176 104.436 17.6 104.98 18.152C105.524 18.696 105.944 19.36 106.24 20.144C106.536 20.928 106.684 21.812 106.684 22.796C106.684 23.78 106.536 24.668 106.24 25.46C105.944 26.244 105.524 26.912 104.98 27.464C104.436 28.016 103.784 28.44 103.024 28.736C102.264 29.032 101.42 29.18 100.492 29.18C99.5561 29.18 98.7041 29.032 97.9361 28.736C97.1761 28.44 96.5241 28.016 95.9801 27.464C95.4361 26.912 95.0121 26.244 94.7081 25.46C94.4121 24.668 94.2641 23.78 94.2641 22.796C94.2641 21.812 94.4121 20.928 94.7081 20.144C95.0121 19.36 95.4361 18.696 95.9801 18.152C96.5241 17.6 97.1761 17.176 97.9361 16.88C98.7041 16.584 99.5561 16.436 100.492 16.436ZM100.492 26.696C101.436 26.696 102.136 26.372 102.592 25.724C103.048 25.068 103.276 24.096 103.276 22.808C103.276 21.528 103.048 20.564 102.592 19.916C102.136 19.26 101.436 18.932 100.492 18.932C99.5241 18.932 98.8121 19.26 98.3561 19.916C97.9001 20.564 97.6721 21.528 97.6721 22.808C97.6721 24.096 97.9001 25.068 98.3561 25.724C98.8121 26.372 99.5241 26.696 100.492 26.696ZM112.832 18.668C113.224 17.964 113.676 17.408 114.188 17C114.7 16.592 115.3 16.388 115.988 16.388C116.548 16.388 117.004 16.52 117.356 16.784L117.14 19.232C117.1 19.392 117.036 19.504 116.948 19.568C116.868 19.624 116.756 19.652 116.612 19.652C116.484 19.652 116.3 19.636 116.06 19.604C115.82 19.564 115.596 19.544 115.388 19.544C115.084 19.544 114.812 19.588 114.572 19.676C114.34 19.764 114.132 19.888 113.948 20.048C113.764 20.208 113.596 20.404 113.444 20.636C113.3 20.868 113.164 21.132 113.036 21.428V29H109.724V16.628H111.68C112.016 16.628 112.248 16.688 112.376 16.808C112.504 16.928 112.596 17.136 112.652 17.432L112.832 18.668Z" fill="white"/>
</svg>
