<svg width="16" height="16" viewBox="0 0 16 16" fill="none" xmlns="http://www.w3.org/2000/svg">
<path d="M1.83337 4C1.70077 4 1.57359 4.05268 1.47982 4.14645C1.38605 4.24021 1.33337 4.36739 1.33337 4.5C1.33337 4.63261 1.38605 4.75979 1.47982 4.85355C1.57359 4.94732 1.70077 5 1.83337 5H14.1667C14.2993 5 14.4265 4.94732 14.5203 4.85355C14.614 4.75979 14.6667 4.63261 14.6667 4.5C14.6667 4.36739 14.614 4.24021 14.5203 4.14645C14.4265 4.05268 14.2993 4 14.1667 4H1.83337ZM4.00004 7.83333C4.00004 7.70073 4.05272 7.57355 4.14649 7.47978C4.24026 7.38601 4.36743 7.33333 4.50004 7.33333H11.5C11.6326 7.33333 11.7598 7.38601 11.8536 7.47978C11.9474 7.57355 12 7.70073 12 7.83333C12 7.96594 11.9474 8.09312 11.8536 8.18689C11.7598 8.28065 11.6326 8.33333 11.5 8.33333H4.50004C4.36743 8.33333 4.24026 8.28065 4.14649 8.18689C4.05272 8.09312 4.00004 7.96594 4.00004 7.83333ZM6.66671 11.1253C6.66671 10.9927 6.71939 10.8655 6.81315 10.7718C6.90692 10.678 7.0341 10.6253 7.16671 10.6253H8.83337C8.96598 10.6253 9.09316 10.678 9.18693 10.7718C9.28069 10.8655 9.33337 10.9927 9.33337 11.1253C9.33337 11.2579 9.28069 11.3851 9.18693 11.4789C9.09316 11.5727 8.96598 11.6253 8.83337 11.6253H7.16671C7.0341 11.6253 6.90692 11.5727 6.81315 11.4789C6.71939 11.3851 6.66671 11.2579 6.66671 11.1253Z" fill="black"/>
</svg>
