<svg width="25" height="24" viewBox="0 0 25 24" fill="none" xmlns="http://www.w3.org/2000/svg">
<g clip-path="url(#clip0_172_48)">
<path d="M24.3778 0.983075C24.271 0.889371 24.119 0.867631 23.9901 0.927398L0.707591 11.7451C0.582246 11.8034 0.501528 11.9284 0.500021 12.0666C0.498515 12.2048 0.576577 12.3316 0.700703 12.3925L7.28962 15.6261C7.41044 15.6854 7.55451 15.672 7.66243 15.5914L14.0687 10.8033L9.0395 15.9764C8.96775 16.0502 8.93116 16.1513 8.93905 16.2539L9.43979 22.7751C9.45091 22.9196 9.54777 23.0431 9.68546 23.0884C9.72226 23.1005 9.76008 23.1063 9.79746 23.1063C9.89999 23.1063 9.99972 23.0624 10.0691 22.982L13.5663 18.9295L17.8895 20.9951C17.9834 21.04 18.092 21.0418 18.1873 21.0004C18.2827 20.9588 18.3553 20.878 18.3864 20.7789L24.4835 1.36026C24.5261 1.22465 24.4846 1.07678 24.3778 0.983075Z" fill="white"/>
</g>
<defs>
<clipPath id="clip0_172_48">
<rect width="24" height="24" fill="white" transform="translate(0.5)"/>
</clipPath>
</defs>
</svg>
