<svg width="24" height="24" viewBox="0 0 24 24" fill="none" xmlns="http://www.w3.org/2000/svg">
<path d="M11.3156 0.698437C11.1188 0.815624 11.0766 0.946874 10.9922 1.71094C10.9078 2.44687 10.8094 2.72812 10.5234 3.0375C10.275 3.31875 10.125 3.39375 9.32344 3.66562C8.71406 3.87187 8.54531 3.90937 8.25 3.90937C7.95469 3.90937 7.85156 3.89062 7.59375 3.76875C7.34063 3.64687 7.2 3.53437 6.79688 3.09844C6.08438 2.32969 6.01406 2.31094 5.46563 2.67656C4.62656 3.23437 4.6125 3.31406 5.12813 4.26094C5.52188 4.98281 5.61094 5.29687 5.53125 5.70937C5.47031 6.0375 5.36719 6.23906 5.01094 6.72656C4.425 7.52812 4.35 7.60781 4.0125 7.78125C3.58125 8.00156 3.29063 8.01562 2.50781 7.85625C1.72969 7.69687 1.62188 7.70156 1.45313 7.86562C1.30781 8.01562 1.03125 8.79844 1.03125 9.07031C1.03125 9.32812 1.21406 9.47812 1.88906 9.77812C2.5875 10.0875 2.86406 10.3078 3.07031 10.7203L3.21094 10.9922V12C3.21094 12.975 3.20625 13.0172 3.09375 13.2422C2.8875 13.6641 2.58281 13.9125 1.87969 14.2266C1.18125 14.5406 1.03125 14.6672 1.03125 14.9437C1.03125 15.1875 1.30313 15.9797 1.43438 16.1109C1.60781 16.2844 1.75313 16.2891 2.475 16.1484C3.31875 15.9844 3.60938 15.9984 4.03125 16.2234C4.34063 16.3875 4.46719 16.5187 4.94531 17.1797C5.40938 17.8172 5.53594 18.1078 5.53594 18.525C5.53594 18.9469 5.475 19.125 5.09531 19.7953C4.74844 20.4047 4.725 20.475 4.78594 20.7C4.82344 20.8266 4.9125 20.925 5.2125 21.1453C5.99063 21.7219 5.99531 21.7219 6.81563 20.8828C7.35469 20.3391 7.4625 20.25 7.6875 20.175C8.14688 20.0203 8.49844 20.0578 9.32344 20.3344C10.125 20.6062 10.275 20.6812 10.5188 20.9531C10.8328 21.3047 10.9031 21.5203 11.0156 22.5234C11.1094 23.3109 11.1984 23.3906 12 23.3906C12.5766 23.3906 12.75 23.3391 12.8625 23.1187C12.8953 23.0484 12.9609 22.6875 13.0078 22.3125C13.0922 21.5531 13.1906 21.2766 13.4766 20.9625C13.725 20.6812 13.875 20.6062 14.6766 20.3344C15.2859 20.1281 15.4547 20.0906 15.75 20.0906C16.0453 20.0906 16.1484 20.1094 16.4063 20.2312C16.6594 20.3531 16.8 20.4656 17.2031 20.9016C17.9156 21.6703 17.9859 21.6891 18.5344 21.3234C19.3734 20.7656 19.3875 20.6859 18.8719 19.7391C18.4734 19.0125 18.3891 18.7031 18.4688 18.2766C18.5344 17.9437 18.6188 17.7797 18.9844 17.2781C19.5797 16.4672 19.65 16.3922 19.9875 16.2187C20.4188 15.9984 20.7094 15.9844 21.4922 16.1437C22.2703 16.3031 22.3781 16.2984 22.5469 16.1344C22.6922 15.9844 22.9688 15.2016 22.9688 14.9297C22.9688 14.6719 22.7859 14.5219 22.1063 14.2219C21.4078 13.9078 21.1359 13.6875 20.9297 13.2797L20.7891 13.0078V12C20.7891 11.025 20.7938 10.9828 20.9063 10.7578C21.1125 10.3312 21.4172 10.0875 22.1156 9.77344C22.8141 9.46406 22.9688 9.33281 22.9688 9.05625C22.9688 8.8125 22.6969 8.02031 22.5656 7.88906C22.3922 7.71562 22.2469 7.71094 21.525 7.85156C20.6813 8.01562 20.3906 8.00156 19.9688 7.77656C19.6594 7.6125 19.5281 7.47656 19.0547 6.82031C18.6609 6.27187 18.5203 6 18.4688 5.69062C18.3984 5.25469 18.4828 4.95937 18.8766 4.26094C19.3781 3.36562 19.3641 3.25312 18.7125 2.79844C18 2.29687 17.9531 2.30156 17.2547 3.04687C16.7016 3.64219 16.5234 3.76875 16.1156 3.87187C15.7266 3.975 15.525 3.94219 14.6719 3.66094C13.8797 3.39375 13.725 3.31875 13.4813 3.04687C13.1672 2.69531 13.0969 2.47969 12.9844 1.47656C12.8906 0.684374 12.8063 0.609374 11.9906 0.609374C11.5547 0.609374 11.4375 0.623437 11.3156 0.698437ZM12.6375 8.25469C14.1094 8.5125 15.2953 9.60469 15.6891 11.0625C15.8063 11.4844 15.8063 12.5156 15.6891 12.9375C15.2063 14.7187 13.5938 15.8906 11.775 15.7828C11.2313 15.75 10.875 15.6609 10.4109 15.4406C9.56719 15.0422 8.95313 14.4328 8.55469 13.5797C8.29219 13.0312 8.22656 12.7172 8.22656 12C8.22656 11.2828 8.29219 10.9734 8.55938 10.4109C9.08438 9.29531 10.0641 8.51719 11.25 8.27344C11.6297 8.19844 12.2672 8.18906 12.6375 8.25469Z" fill="#A80000"/>
</svg>
