<svg width="24" height="24" viewBox="0 0 24 24" fill="none" xmlns="http://www.w3.org/2000/svg">
<path d="M11.7325 0.0468771C11.5825 0.107815 2.47467 5.52656 2.37154 5.62031C2.14186 5.82188 2.13248 5.8875 2.11842 7.40625C2.09967 9.01406 2.16529 10.6359 2.27311 11.4375C2.76998 15.0703 4.32623 18.2672 6.79186 20.7188C8.21217 22.125 9.78248 23.175 11.5215 23.8641C11.9809 24.0469 12.1028 24.0375 12.82 23.7234C14.4512 23.0156 15.9231 22.0078 17.2262 20.7C19.0872 18.8344 20.4419 16.5375 21.1872 13.9828C21.7356 12.1125 21.9137 10.3969 21.8809 7.35938C21.8669 5.89219 21.8575 5.82188 21.6278 5.61563C21.5153 5.51719 12.4919 0.150002 12.295 0.0656271C12.1262 -0.0093729 11.8872 -0.0140604 11.7325 0.0468771ZM15.8012 8.96719C16.1434 9.19688 16.2794 9.64688 16.1059 9.975C16.0684 10.0453 14.8497 11.2875 13.3965 12.7359C10.4903 15.6328 10.6075 15.5391 10.1622 15.4219C9.98873 15.375 9.81061 15.2203 8.96686 14.3766C8.41842 13.8328 7.93561 13.3172 7.89342 13.2281C7.79029 13.0078 7.82311 12.6234 7.96373 12.4266C8.16529 12.15 8.56842 12.0234 8.89186 12.1406C8.96217 12.1688 9.32311 12.4922 9.69342 12.8578L10.359 13.5234L12.6231 11.2641C13.8653 10.0219 14.9481 8.97188 15.0231 8.93438C15.2387 8.82188 15.609 8.83594 15.8012 8.96719Z" fill="#A80000"/>
</svg>
