<svg width="18" height="22" viewBox="0 0 18 22" fill="none" xmlns="http://www.w3.org/2000/svg">
<path d="M3.70045 10.9438C3.70045 11.9442 3.9817 12.9205 4.51205 13.7603L4.63661 13.9612L4.10223 15.9138L6.10714 15.3875L6.3 15.504C7.11161 15.9862 8.04375 16.2433 8.99598 16.2433H9C11.917 16.2433 14.3558 13.8687 14.3558 10.9478C14.3558 9.53348 13.7451 8.20357 12.7446 7.20312C11.7402 6.19866 10.4143 5.64821 9 5.64821C6.07902 5.64821 3.70446 8.02277 3.70045 10.9438ZM11.0411 13.9732C10.5348 14.0496 10.1411 14.0094 9.13259 13.5754C7.65402 12.9366 6.64955 11.5062 6.44464 11.217C6.42857 11.1929 6.41652 11.1808 6.4125 11.1728C6.33214 11.0683 5.76161 10.3089 5.76161 9.52545C5.76161 8.78616 6.12321 8.40446 6.29196 8.22768C6.30402 8.21562 6.31205 8.20759 6.32009 8.19554C6.46473 8.03482 6.6375 7.99464 6.74598 7.99464C6.85045 7.99464 6.95893 7.99464 7.05134 7.99866C7.06339 7.99866 7.07143 7.99866 7.08348 7.99866C7.17589 7.99866 7.29241 7.99866 7.40893 8.27188C7.45714 8.38839 7.52946 8.56518 7.6058 8.74598C7.73839 9.06741 7.875 9.40089 7.89911 9.45312C7.93929 9.53348 7.96741 9.62589 7.91116 9.73036C7.77455 10.0036 7.63393 10.1482 7.5375 10.2527C7.41295 10.3812 7.3567 10.4415 7.44509 10.5982C8.05982 11.6549 8.67455 12.0205 9.61071 12.4906C9.77143 12.571 9.86384 12.5589 9.95625 12.4504C10.0487 12.346 10.354 11.9844 10.4585 11.8277C10.5629 11.667 10.6714 11.6951 10.8161 11.7473C10.9607 11.7996 11.7442 12.1853 11.9049 12.2656C11.9371 12.2817 11.9652 12.2937 11.9893 12.3058C12.1018 12.3621 12.1781 12.3982 12.2103 12.4504C12.2464 12.5268 12.2464 12.8482 12.1138 13.2179C11.9812 13.5915 11.3464 13.929 11.0411 13.9732ZM18 4.57143C18 3.15313 16.8469 2 15.4286 2H2.57143C1.15313 2 0 3.15313 0 4.57143V17.4286C0 18.8469 1.15313 20 2.57143 20H15.4286C16.8469 20 18 18.8469 18 17.4286V4.57143ZM5.95045 16.5406L2.57143 17.4286L3.47545 14.1259C2.91696 13.1616 2.62366 12.0647 2.62366 10.9397C2.62768 7.42812 5.48437 4.57143 8.99598 4.57143C10.6996 4.57143 12.2987 5.23438 13.504 6.43973C14.7054 7.64509 15.4286 9.2442 15.4286 10.9478C15.4286 14.4594 12.5076 17.3161 8.99598 17.3161C7.92723 17.3161 6.87857 17.0469 5.95045 16.5406Z" fill="#A80000"/>
</svg>
