<svg width="25" height="25" viewBox="0 0 25 25" fill="none" xmlns="http://www.w3.org/2000/svg">
<path d="M9.71273 5.91473C10.9794 3.64248 11.6127 2.50635 12.5596 2.50635C13.5065 2.50635 14.1398 3.64247 15.4064 5.91472L15.7341 6.50258C16.0941 7.14828 16.274 7.47114 16.5547 7.68416C16.8353 7.89718 17.1847 7.97625 17.8837 8.1344L18.5201 8.27838C20.9797 8.83491 22.2096 9.11317 22.5022 10.0541C22.7948 10.9949 21.9564 11.9754 20.2795 13.9362L19.8457 14.4435C19.3692 15.0007 19.1309 15.2793 19.0237 15.624C18.9166 15.9687 18.9526 16.3404 19.0246 17.0839L19.0902 17.7607C19.3437 20.3769 19.4705 21.685 18.7045 22.2665C17.9384 22.848 16.7869 22.3178 14.4839 21.2575L13.8881 20.9831C13.2337 20.6818 12.9065 20.5311 12.5596 20.5311C12.2127 20.5311 11.8855 20.6818 11.2311 20.9831L10.6353 21.2575C8.33225 22.3178 7.18075 22.848 6.41472 22.2665C5.64869 21.685 5.77545 20.3769 6.02897 17.7607L6.09455 17.0839C6.1666 16.3404 6.20262 15.9687 6.09543 15.624C5.98825 15.2793 5.75 15.0007 5.27349 14.4435L4.83967 13.9362C3.16282 11.9754 2.32439 10.9949 2.61699 10.0541C2.90959 9.11317 4.13943 8.83491 6.59911 8.27838L7.23546 8.1344C7.93442 7.97625 8.2839 7.89718 8.56451 7.68416C8.84512 7.47114 9.0251 7.14829 9.38504 6.50258L9.71273 5.91473Z" fill="#A80000"/>
</svg>
