<svg width="24" height="24" viewBox="0 0 24 24" fill="none" xmlns="http://www.w3.org/2000/svg">
<path fill-rule="evenodd" clip-rule="evenodd" d="M5 9.5C5 7.01472 7.01472 5 9.5 5C11.9853 5 14 7.01472 14 9.5C14 11.9853 11.9853 14 9.5 14C7.01472 14 5 11.9853 5 9.5Z" fill="white"/>
<path d="M14.368 12.0632C14.3225 12.1494 14.3418 12.2569 14.4201 12.3149C15.0017 12.7454 15.7214 13 16.5005 13C18.4335 13 20.0005 11.433 20.0005 9.5C20.0005 7.567 18.4335 6 16.5005 6C15.7214 6 15.0017 6.2546 14.4201 6.68513C14.3418 6.74313 14.3225 6.85058 14.368 6.93679C14.7719 7.70219 15.0005 8.5744 15.0005 9.5C15.0005 10.4256 14.7719 11.2978 14.368 12.0632Z" fill="white"/>
<path fill-rule="evenodd" clip-rule="evenodd" d="M4.64066 15.6993C5.87302 15.1644 7.48996 15 9.49946 15C11.5107 15 13.1288 15.1647 14.3616 15.7008C15.7045 16.2847 16.5207 17.2793 16.9485 18.6836C17.149 19.3418 16.6546 20 15.9733 20H3.02752C2.3454 20 1.84996 19.3408 2.05108 18.6814C2.47945 17.2769 3.29689 16.2826 4.64066 15.6993Z" fill="white"/>
<path d="M14.8189 14.0362C14.4049 14.0619 14.3806 14.6181 14.761 14.7835C15.8034 15.2368 16.5883 15.9041 17.1512 16.7558C17.6131 17.4547 18.3304 17.9998 19.1681 17.9998H20.9487C21.6559 17.9998 22.1719 17.2971 21.9231 16.6106C21.9088 16.5711 21.8939 16.5319 21.8785 16.493C21.5361 15.6284 20.9492 14.9919 20.0802 14.5862C19.2643 14.2053 18.2429 14.0481 17.0396 14.0006L17.0198 13.9998H17.0001C16.2913 13.9998 15.551 13.9907 14.8189 14.0362Z" fill="white"/>
</svg>
