<svg width="16" height="20" viewBox="0 0 16 20" fill="none" xmlns="http://www.w3.org/2000/svg">
<g clip-path="url(#clip0_971_1200)">
<path d="M8 10.0003C9.21242 10.0003 10.3752 9.51865 11.2325 8.66134C12.0898 7.80403 12.5714 6.64127 12.5714 5.42885C12.5714 4.21643 12.0898 3.05367 11.2325 2.19636C10.3752 1.33905 9.21242 0.857422 8 0.857422C6.78758 0.857422 5.62482 1.33905 4.76751 2.19636C3.9102 3.05367 3.42857 4.21643 3.42857 5.42885C3.42857 6.64127 3.9102 7.80403 4.76751 8.66134C5.62482 9.51865 6.78758 10.0003 8 10.0003ZM6.36786 11.7146C2.85 11.7146 0 14.5646 0 18.0824C0 18.6681 0.475 19.1431 1.06071 19.1431H14.9393C15.525 19.1431 16 18.6681 16 18.0824C16 14.5646 13.15 11.7146 9.63214 11.7146H6.36786Z" fill="#A80000"/>
</g>
<defs>
<clipPath id="clip0_971_1200">
<rect width="16" height="18.2857" fill="white" transform="translate(0 0.857422)"/>
</clipPath>
</defs>
</svg>
